<svg 
 xmlns="http://www.w3.org/2000/svg"
 xmlns:xlink="http://www.w3.org/1999/xlink"
 width="14.986in" height="3.986in">
<path fill-rule="evenodd"  fill="rgb(255, 255, 255)"
 d="M1079.000,165.000 L1079.000,205.000 L993.000,205.000 C993.000,205.000 993.000,190.938 993.000,186.000 C998.544,184.697 999.000,180.000 999.000,180.000 C999.000,180.000 999.000,114.018 999.000,109.000 C999.000,103.982 993.000,103.000 993.000,103.000 L993.000,83.000 L1079.000,83.000 L1079.000,120.000 C1079.000,120.000 1063.259,120.000 1052.000,120.000 C1054.523,105.891 1042.000,107.000 1042.000,107.000 L1027.000,107.000 L1027.000,132.000 L1061.000,132.000 L1061.000,152.000 L1027.000,152.000 L1027.000,182.000 C1027.000,182.000 1040.863,182.137 1046.000,182.000 C1051.137,181.863 1052.000,175.000 1052.000,175.000 L1052.000,165.000 L1079.000,165.000 ZM935.000,205.000 L885.000,205.000 C885.000,205.000 885.000,195.339 885.000,186.000 C891.462,185.654 892.000,178.000 892.000,178.000 C892.000,178.000 892.000,114.209 892.000,109.000 C892.000,103.791 886.000,103.000 886.000,103.000 L886.000,84.000 C886.000,84.000 905.399,84.000 937.000,84.000 C968.601,84.000 972.000,118.000 972.000,118.000 C972.000,118.000 973.000,132.491 973.000,169.000 C973.000,205.509 935.000,205.000 935.000,205.000 ZM945.000,120.000 C945.000,120.000 944.947,108.000 935.000,108.000 C925.053,108.000 920.000,108.000 920.000,108.000 L920.000,181.000 L934.000,181.000 C934.000,181.000 945.000,180.442 945.000,170.000 C945.000,159.558 945.000,120.000 945.000,120.000 ZM831.000,185.000 C831.000,185.000 838.044,186.148 837.000,178.000 C835.956,170.995 836.000,170.000 836.000,170.000 L811.000,170.000 C811.000,170.000 810.044,176.434 810.000,178.000 C809.956,179.566 809.044,184.291 817.000,185.000 C817.000,193.852 817.000,205.000 817.000,205.000 L780.000,205.000 L780.000,185.000 C780.000,185.000 786.330,183.291 787.000,177.000 C787.670,170.709 804.000,83.000 804.000,83.000 L847.000,83.000 L866.000,179.000 C866.000,179.000 867.615,184.577 873.000,186.000 C873.000,194.709 873.000,205.000 873.000,205.000 L831.000,205.000 L831.000,185.000 ZM831.000,148.000 L824.000,106.000 L815.000,153.000 L831.000,153.000 L831.000,148.000 ZM733.000,194.000 C733.000,183.995 733.000,165.000 733.000,165.000 C733.000,165.000 731.472,157.000 722.000,157.000 C712.528,157.000 710.000,157.000 710.000,157.000 L710.000,179.000 C710.000,179.000 709.187,184.291 715.000,186.000 C715.000,195.281 715.000,205.000 715.000,205.000 L675.000,205.000 L675.000,186.000 C675.000,186.000 681.187,184.577 681.000,179.000 C680.813,173.423 681.000,173.000 681.000,173.000 L681.000,110.000 C681.000,110.000 681.615,104.291 674.000,103.000 C674.000,89.852 674.000,83.000 674.000,83.000 L729.000,83.000 C729.000,83.000 763.000,83.434 763.000,118.000 C763.000,138.709 752.330,143.434 746.000,147.000 C752.528,148.709 760.044,156.148 760.000,162.000 C759.956,167.852 760.000,179.000 760.000,179.000 C760.000,179.000 759.615,184.291 765.000,186.000 C765.000,191.852 765.000,206.000 765.000,206.000 L736.000,206.000 C736.000,206.000 733.000,204.005 733.000,194.000 ZM726.000,106.000 C723.612,106.000 709.000,106.000 709.000,106.000 L709.000,135.000 L726.000,135.000 C726.000,135.000 735.000,131.927 735.000,121.000 C735.000,110.073 728.388,106.000 726.000,106.000 ZM636.000,115.000 C636.000,115.000 633.329,107.000 630.000,107.000 C626.671,107.000 625.000,107.000 625.000,107.000 L625.000,179.000 C625.000,179.000 624.887,184.884 631.000,185.000 C631.000,193.659 631.000,205.000 631.000,205.000 L590.000,205.000 L590.000,185.000 C590.000,185.000 596.000,185.581 596.000,179.000 C596.000,172.419 596.000,107.000 596.000,107.000 L592.000,107.000 C592.000,107.000 588.299,106.485 585.000,114.000 C585.000,122.108 585.000,133.000 585.000,133.000 L562.000,133.000 L562.000,83.000 L659.000,83.000 L659.000,133.000 L636.000,133.000 L636.000,115.000 ZM548.000,108.000 L524.000,157.000 C524.000,157.000 524.000,173.756 524.000,179.000 C524.000,184.244 531.000,185.000 531.000,185.000 L531.000,205.000 L491.000,205.000 C491.000,205.000 491.000,197.548 491.000,185.000 C495.557,184.661 497.000,178.000 497.000,178.000 L497.000,158.000 C497.000,158.000 473.918,111.520 472.000,107.000 C470.082,102.480 467.000,102.000 467.000,102.000 L467.000,84.000 L502.000,84.000 C502.000,100.592 503.000,109.000 503.000,109.000 L513.000,129.000 L523.000,107.000 L523.000,83.000 L554.000,83.000 C554.000,83.000 554.000,92.989 554.000,103.000 C552.041,103.307 548.000,108.000 548.000,108.000 ZM414.000,185.000 C420.467,184.661 420.000,177.000 420.000,177.000 L420.000,113.000 L398.000,205.000 L387.000,205.000 L365.000,113.000 C365.000,113.000 365.000,171.565 365.000,179.000 C365.000,186.435 370.000,185.000 370.000,185.000 L370.000,205.000 L336.000,205.000 C336.000,205.000 336.000,194.731 336.000,185.000 C342.377,185.287 342.000,180.000 342.000,180.000 C342.000,180.000 342.149,116.468 342.000,110.000 C341.851,103.532 336.000,103.000 336.000,103.000 L336.000,84.000 L379.000,84.000 L395.000,154.000 L410.000,84.000 L454.000,84.000 C454.000,84.000 454.000,91.110 454.000,103.000 C447.234,103.000 447.000,110.000 447.000,110.000 C447.000,110.000 447.000,173.130 447.000,179.000 C447.000,184.870 454.000,186.000 454.000,186.000 L454.000,205.000 L414.000,205.000 C414.000,205.000 414.000,195.670 414.000,185.000 ZM163.000,282.000 C163.000,282.000 139.422,293.810 113.000,279.000 C86.578,264.190 16.000,229.000 16.000,229.000 C16.000,229.000 -0.306,221.731 0.000,202.000 C0.306,182.269 0.000,90.000 0.000,90.000 C0.000,90.000 0.688,70.848 21.000,59.000 C41.312,47.152 122.000,4.000 122.000,4.000 C122.000,4.000 139.055,-7.342 169.000,9.000 C198.945,25.342 267.000,64.000 267.000,64.000 C267.000,64.000 283.000,72.758 283.000,94.000 C283.000,115.242 283.000,197.000 283.000,197.000 C283.000,197.000 284.724,218.280 265.000,229.000 C245.276,239.720 163.000,282.000 163.000,282.000 ZM237.000,82.000 C222.567,72.986 153.000,36.000 153.000,36.000 C153.000,36.000 142.500,26.000 128.000,36.000 L40.000,85.000 C40.000,85.000 34.000,88.536 34.000,99.000 C34.000,109.464 33.000,193.000 33.000,193.000 C33.000,193.000 29.241,198.787 44.000,206.000 C59.302,216.472 126.000,251.000 126.000,251.000 C126.000,251.000 141.700,259.084 157.000,250.000 C172.300,240.916 241.000,207.000 241.000,207.000 C241.000,207.000 248.433,205.014 248.000,190.000 C247.567,174.986 248.000,101.000 248.000,101.000 C248.000,101.000 253.332,92.200 237.000,82.000 ZM217.000,196.000 L206.000,196.000 C202.686,196.000 200.000,193.314 200.000,190.000 L200.000,153.000 C200.000,149.686 202.686,147.000 206.000,147.000 L217.000,147.000 C220.314,147.000 223.000,149.686 223.000,153.000 L223.000,190.000 C223.000,193.314 220.314,196.000 217.000,196.000 ZM212.000,143.000 C211.448,143.000 211.000,142.552 211.000,142.000 L211.000,132.000 C211.000,131.448 211.448,131.000 212.000,131.000 C212.552,131.000 213.000,131.448 213.000,132.000 L213.000,142.000 C213.000,142.552 212.552,143.000 212.000,143.000 ZM185.000,216.000 L174.000,216.000 C170.686,216.000 168.000,213.314 168.000,210.000 L168.000,128.000 C168.000,124.686 170.686,122.000 174.000,122.000 L185.000,122.000 C188.314,122.000 191.000,124.686 191.000,128.000 L191.000,210.000 C191.000,213.314 188.314,216.000 185.000,216.000 ZM180.000,119.000 C179.448,119.000 179.000,118.552 179.000,118.000 L179.000,108.000 C179.000,107.448 179.448,107.000 180.000,107.000 C180.552,107.000 181.000,107.448 181.000,108.000 L181.000,118.000 C181.000,118.552 180.552,119.000 180.000,119.000 ZM180.000,220.000 C180.552,220.000 181.000,220.448 181.000,221.000 L181.000,231.000 C181.000,231.552 180.552,232.000 180.000,232.000 C179.448,232.000 179.000,231.552 179.000,231.000 L179.000,221.000 C179.000,220.448 179.448,220.000 180.000,220.000 ZM212.000,199.000 C212.552,199.000 213.000,199.448 213.000,200.000 L213.000,210.000 C213.000,210.552 212.552,211.000 212.000,211.000 C211.448,211.000 211.000,210.552 211.000,210.000 L211.000,200.000 C211.000,199.448 211.448,199.000 212.000,199.000 ZM145.000,196.000 L134.000,196.000 C130.686,196.000 128.000,193.314 128.000,190.000 L128.000,108.000 C128.000,104.686 130.686,102.000 134.000,102.000 L145.000,102.000 C148.314,102.000 151.000,104.686 151.000,108.000 L151.000,190.000 C151.000,193.314 148.314,196.000 145.000,196.000 ZM145.000,95.000 L134.000,95.000 C130.686,95.000 128.000,92.314 128.000,89.000 L128.000,74.000 C128.000,70.686 130.686,68.000 134.000,68.000 L145.000,68.000 C148.314,68.000 151.000,70.686 151.000,74.000 L151.000,89.000 C151.000,92.314 148.314,95.000 145.000,95.000 ZM140.000,67.000 C139.448,67.000 139.000,66.552 139.000,66.000 L139.000,56.000 C139.000,55.448 139.448,55.000 140.000,55.000 C140.552,55.000 141.000,55.448 141.000,56.000 L141.000,66.000 C141.000,66.552 140.552,67.000 140.000,67.000 ZM140.000,202.000 C140.552,202.000 141.000,202.448 141.000,203.000 L141.000,213.000 C141.000,213.552 140.552,214.000 140.000,214.000 C139.448,214.000 139.000,213.552 139.000,213.000 L139.000,203.000 C139.000,202.448 139.448,202.000 140.000,202.000 ZM109.000,215.000 L98.000,215.000 C94.686,215.000 92.000,212.314 92.000,209.000 L92.000,127.000 C92.000,123.686 94.686,121.000 98.000,121.000 L109.000,121.000 C112.314,121.000 115.000,123.686 115.000,127.000 L115.000,209.000 C115.000,212.314 112.314,215.000 109.000,215.000 ZM103.000,119.000 C102.448,119.000 102.000,118.552 102.000,118.000 L102.000,108.000 C102.000,107.448 102.448,107.000 103.000,107.000 C103.552,107.000 104.000,107.448 104.000,108.000 L104.000,118.000 C104.000,118.552 103.552,119.000 103.000,119.000 ZM76.000,188.000 L65.000,188.000 C61.686,188.000 59.000,185.314 59.000,182.000 L59.000,153.000 C59.000,149.686 61.686,147.000 65.000,147.000 L76.000,147.000 C79.314,147.000 82.000,149.686 82.000,153.000 L82.000,182.000 C82.000,185.314 79.314,188.000 76.000,188.000 ZM70.000,144.000 C69.448,144.000 69.000,143.552 69.000,143.000 L69.000,134.000 C69.000,133.448 69.448,133.000 70.000,133.000 C70.552,133.000 71.000,133.448 71.000,134.000 L71.000,143.000 C71.000,143.552 70.552,144.000 70.000,144.000 ZM70.000,193.000 C70.552,193.000 71.000,193.448 71.000,194.000 L71.000,203.000 C71.000,203.552 70.552,204.000 70.000,204.000 C69.448,204.000 69.000,203.552 69.000,203.000 L69.000,194.000 C69.000,193.448 69.448,193.000 70.000,193.000 ZM103.000,219.000 C103.552,219.000 104.000,219.448 104.000,220.000 L104.000,230.000 C104.000,230.552 103.552,231.000 103.000,231.000 C102.448,231.000 102.000,230.552 102.000,230.000 L102.000,220.000 C102.000,219.448 102.448,219.000 103.000,219.000 Z"/>
</svg>