<svg width="30" height="29" viewBox="0 0 30 29" fill="none" xmlns="http://www.w3.org/2000/svg" class="s-ion-icon">
<path d="M0.391113 18.3382L1.03081 18.9779L3.37641 21.3235L4.01611 21.9632L4.65581 21.3235C5.60551 20.3738 7.11793 20.3739 8.0676 21.3235C9.01731 22.2733 9.01731 23.7856 8.0676 24.7353L7.42787 25.375L8.0676 26.0147L10.4132 28.3603L11.0529 29L11.6926 28.3603L28.7514 11.3014L29.3911 10.6618L28.7514 10.022L26.4058 7.67645L25.7661 7.03674L25.1264 7.67645C24.1767 8.62616 22.6644 8.62618 21.7147 7.67645C20.765 6.72678 20.7649 5.21437 21.7147 4.26469L22.3544 3.625L21.7147 2.98529L19.3691 0.639692L18.7294 0L18.0897 0.639692L1.03081 17.6985L0.391113 18.3382ZM2.94994 18.3382L13.3985 7.88968L21.5014 15.9926L11.0529 26.4412L9.90676 25.295C10.9471 23.6634 10.7683 21.4654 9.347 20.0441C7.92575 18.6229 5.72113 18.4373 4.08942 19.4777L2.94994 18.3382ZM14.6779 6.61028L18.7294 2.55881L19.8688 3.69829C18.8285 5.32999 19.014 7.53463 20.4352 8.95587C21.8565 10.3771 24.0545 10.556 25.6862 9.51561L26.8323 10.6618L22.7808 14.7132L14.6779 6.61028ZM10.4132 13.0073L11.5993 15.7927L9.54691 18.1117L12.5922 17.7852L14.1115 20.3973L14.8112 17.4053L17.8031 16.7057L15.191 15.1863L15.5175 12.1411L13.1986 14.1935L10.4132 13.0073Z" fill="#03293D"></path>
</svg>