<svg width="30" height="24" viewBox="0 0 30 24" fill="none" xmlns="http://www.w3.org/2000/svg" class="s-ion-icon">
<path d="M14.8908 15.817C14.1087 15.817 13.3442 16.0489 12.6939 16.4834C12.0436 16.9179 11.5368 17.5355 11.2375 18.258C10.9382 18.9806 10.8599 19.7756 11.0125 20.5427C11.1651 21.3097 11.5417 22.0143 12.0947 22.5673C12.6477 23.1203 13.3523 23.4969 14.1193 23.6495C14.8864 23.8021 15.6815 23.7238 16.404 23.4245C17.1265 23.1252 17.7441 22.6184 18.1786 21.9681C18.6131 21.3178 18.845 20.5533 18.845 19.7712C18.8443 18.7227 18.4275 17.7174 17.6861 16.9759C16.9447 16.2345 15.9393 15.8177 14.8908 15.817Z" fill="#03293D"></path>
<path d="M6.52294 11.4109C6.15322 11.7827 5.94632 12.2861 5.94776 12.8104C5.9492 13.3348 6.15887 13.837 6.53064 14.2067C6.9024 14.5765 7.40582 14.7834 7.93013 14.7819C8.45445 14.7805 8.95671 14.5708 9.32644 14.1991C10.8165 12.7505 12.8128 11.94 14.891 11.94C16.9691 11.94 18.9654 12.7505 20.4555 14.1991C20.6386 14.3846 20.8569 14.5317 21.0976 14.6318C21.3383 14.732 21.5965 14.7831 21.8572 14.7823C22.2477 14.7822 22.6294 14.6665 22.9543 14.4497C23.2791 14.233 23.5324 13.9249 23.6824 13.5643C23.8323 13.2037 23.8721 12.8068 23.7967 12.4237C23.7214 12.0405 23.5343 11.6883 23.259 11.4113C18.7718 6.89293 11.0101 6.89292 6.52294 11.4109Z" fill="#03293D"></path>
<path d="M28.8198 5.85799C27.005 4.00347 24.8381 2.53003 22.4463 1.52409C20.0545 0.518163 17.4859 0 14.8911 0C12.2964 0 9.72774 0.518163 7.33592 1.52409C4.9441 2.53003 2.77724 4.00347 0.962447 5.85799C0.593752 6.23078 0.388248 6.73476 0.391143 7.25907C0.394039 7.78338 0.605096 8.28506 0.977885 8.65376C1.35067 9.02245 1.85466 9.22796 2.37897 9.22506C2.90327 9.22217 3.40496 9.01111 3.77365 8.63832C9.74364 2.59883 20.0386 2.59883 26.0086 8.63832C26.3773 9.01111 26.879 9.22217 27.4033 9.22506C27.9276 9.22796 28.4316 9.02245 28.8043 8.65376C29.1771 8.28506 29.3882 7.78338 29.3911 7.25907C29.394 6.73476 29.1885 6.23078 28.8198 5.85799Z" fill="#03293D"></path>
</svg>