<svg id="Capa_1" enable-background="new 0 0 512 512" height="512" viewBox="0 0 512 512" width="512" xmlns="http://www.w3.org/2000/svg" class="s-ion-icon"><g><path d="m488.115 103.733c-1.921 0-3.479 1.557-3.479 3.479 0 1.921 1.557 3.479 3.479 3.479 1.921 0 3.479-1.558 3.479-3.479 0-1.922-1.557-3.479-3.479-3.479z"></path><path d="m488.115 126.16c-1.921 0-3.479 1.557-3.479 3.478s1.557 3.479 3.479 3.479c1.921 0 3.479-1.558 3.479-3.479 0-1.92-1.557-3.478-3.479-3.478z"></path><path d="m499.751 136.952c-1.921 0-3.479 1.557-3.479 3.478s1.557 3.479 3.479 3.479c1.921 0 3.479-1.558 3.479-3.479s-1.558-3.478-3.479-3.478z"></path><path d="m488.115 148.587c-1.921 0-3.479 1.557-3.479 3.479 0 1.921 1.557 3.479 3.479 3.479 1.921 0 3.479-1.558 3.479-3.479 0-1.922-1.557-3.479-3.479-3.479z"></path><path d="m499.751 159.379c-1.921 0-3.479 1.557-3.479 3.479 0 1.921 1.557 3.479 3.479 3.479 1.921 0 3.479-1.558 3.479-3.479 0-1.922-1.558-3.479-3.479-3.479z"></path><path d="m488.115 171.014c-1.921 0-3.479 1.558-3.479 3.479 0 1.92 1.557 3.478 3.479 3.478 1.921 0 3.479-1.558 3.479-3.478 0-1.921-1.557-3.479-3.479-3.479z"></path><path d="m499.751 181.806c-1.921 0-3.479 1.557-3.479 3.478s1.557 3.479 3.479 3.479c1.921 0 3.479-1.558 3.479-3.479s-1.558-3.478-3.479-3.478z"></path><path d="m488.115 193.441c-1.921 0-3.479 1.558-3.479 3.479 0 1.922 1.557 3.479 3.479 3.479 1.921 0 3.479-1.557 3.479-3.479 0-1.921-1.557-3.479-3.479-3.479z"></path><circle cx="488.115" cy="264.201" r="3.479"></circle><path d="m499.751 271.514c-1.921 0-3.479 1.557-3.479 3.478 0 1.922 1.557 3.479 3.479 3.479 1.921 0 3.479-1.557 3.479-3.479 0-1.921-1.558-3.478-3.479-3.478z"></path><circle cx="488.115" cy="286.628" r="3.479"></circle><path d="m499.751 293.941c-1.921 0-3.479 1.558-3.479 3.479s1.557 3.478 3.479 3.478c1.921 0 3.479-1.557 3.479-3.478 0-1.922-1.558-3.479-3.479-3.479z"></path><path d="m488.115 305.576c-1.921 0-3.479 1.558-3.479 3.479s1.557 3.479 3.479 3.479c1.921 0 3.479-1.558 3.479-3.479s-1.557-3.479-3.479-3.479z"></path><path d="m499.751 316.367c-1.921 0-3.479 1.558-3.479 3.479s1.557 3.479 3.479 3.479c1.921 0 3.479-1.557 3.479-3.479 0-1.92-1.558-3.479-3.479-3.479z"></path><path d="m488.115 328.003c-1.921 0-3.479 1.558-3.479 3.479s1.557 3.479 3.479 3.479c1.921 0 3.479-1.558 3.479-3.479s-1.557-3.479-3.479-3.479z"></path><path d="m499.751 338.795c-1.921 0-3.479 1.558-3.479 3.479s1.557 3.479 3.479 3.479c1.921 0 3.479-1.558 3.479-3.479 0-1.922-1.558-3.479-3.479-3.479z"></path><path d="m488.115 350.43c-1.921 0-3.479 1.558-3.479 3.478 0 1.921 1.557 3.479 3.479 3.479 1.921 0 3.479-1.558 3.479-3.479 0-1.92-1.557-3.478-3.479-3.478z"></path><path d="m499.751 361.222c-1.921 0-3.479 1.557-3.479 3.478s1.557 3.479 3.479 3.479c1.921 0 3.479-1.558 3.479-3.479s-1.558-3.478-3.479-3.478z"></path><path d="m488.115 372.857c-1.921 0-3.479 1.558-3.479 3.479s1.557 3.479 3.479 3.479c1.921 0 3.479-1.558 3.479-3.479s-1.557-3.479-3.479-3.479z"></path><path d="m488.115 395.284c-1.921 0-3.479 1.558-3.479 3.478 0 1.921 1.557 3.479 3.479 3.479 1.921 0 3.479-1.558 3.479-3.479 0-1.92-1.557-3.478-3.479-3.478z"></path><path d="m477.324 114.524c-1.921 0-3.479 1.558-3.479 3.479s1.558 3.479 3.479 3.479 3.479-1.557 3.479-3.479c0-1.921-1.558-3.479-3.479-3.479z"></path><path d="m477.324 136.952c-1.921 0-3.479 1.557-3.479 3.478s1.558 3.479 3.479 3.479 3.479-1.558 3.479-3.479-1.558-3.478-3.479-3.478z"></path><path d="m477.324 159.379c-1.921 0-3.479 1.557-3.479 3.479 0 1.921 1.558 3.479 3.479 3.479s3.479-1.558 3.479-3.479c0-1.922-1.558-3.479-3.479-3.479z"></path><path d="m477.324 181.806c-1.921 0-3.479 1.557-3.479 3.478s1.558 3.479 3.479 3.479 3.479-1.558 3.479-3.479-1.558-3.478-3.479-3.478z"></path><path d="m477.324 271.514c-1.921 0-3.479 1.557-3.479 3.478 0 1.922 1.558 3.479 3.479 3.479s3.479-1.557 3.479-3.479c0-1.921-1.558-3.478-3.479-3.478z"></path><path d="m477.324 293.941c-1.921 0-3.479 1.558-3.479 3.479s1.558 3.478 3.479 3.478 3.479-1.557 3.479-3.478c0-1.922-1.558-3.479-3.479-3.479z"></path><path d="m477.324 316.367c-1.921 0-3.479 1.558-3.479 3.479s1.558 3.479 3.479 3.479 3.479-1.557 3.479-3.479c0-1.92-1.558-3.479-3.479-3.479z"></path><path d="m477.324 338.795c-1.921 0-3.479 1.558-3.479 3.479s1.558 3.479 3.479 3.479 3.479-1.558 3.479-3.479c0-1.922-1.558-3.479-3.479-3.479z"></path><path d="m477.324 361.222c-1.921 0-3.479 1.557-3.479 3.478s1.558 3.479 3.479 3.479 3.479-1.558 3.479-3.479-1.558-3.478-3.479-3.478z"></path><path d="m465.689 372.857c-1.922 0-3.479 1.558-3.479 3.479s1.557 3.479 3.479 3.479c1.921 0 3.478-1.558 3.478-3.479s-1.558-3.479-3.478-3.479z"></path><path d="m477.324 383.649c-1.921 0-3.479 1.558-3.479 3.479s1.558 3.479 3.479 3.479 3.479-1.558 3.479-3.479c0-1.922-1.558-3.479-3.479-3.479z"></path><path d="m465.689 395.284c-1.922 0-3.479 1.558-3.479 3.478 0 1.921 1.557 3.479 3.479 3.479 1.921 0 3.478-1.558 3.478-3.479 0-1.92-1.558-3.478-3.478-3.478z"></path><path d="m477.324 406.075c-1.921 0-3.479 1.558-3.479 3.479s1.558 3.479 3.479 3.479 3.479-1.558 3.479-3.479c0-1.92-1.558-3.479-3.479-3.479z"></path><path d="m454.897 383.649c-1.627 0-2.982 1.122-3.362 2.63.014-.221.034-.441.034-.666v-12.517c0-5.828-4.742-10.57-10.57-10.57h-18.285c-5.829 0-10.57 4.742-10.57 10.57v12.517c0 4.653 3.026 8.605 7.211 10.014-1.178.557-1.998 1.747-1.998 3.136 0 1.921 1.557 3.479 3.479 3.479 1.921 0 3.479-1.558 3.479-3.479 0-1.028-.455-1.943-1.164-2.58h17.798c-.709.637-1.164 1.551-1.164 2.58 0 1.921 1.557 3.479 3.479 3.479 1.921 0 3.478-1.558 3.478-3.479 0-1.455-.895-2.697-2.162-3.217 3.575-1.292 6.253-4.455 6.852-8.304.062 1.867 1.585 3.364 3.467 3.364 1.921 0 3.479-1.558 3.479-3.479-.002-1.921-1.56-3.478-3.481-3.478zm-34.45-10.553c0-1.249 1.017-2.266 2.267-2.266h18.285c1.249 0 2.266 1.017 2.266 2.266v12.517c0 1.25-1.017 2.266-2.266 2.266h-18.285c-1.25 0-2.267-1.017-2.267-2.266z"></path><path d="m454.897 406.075c-1.921 0-3.479 1.558-3.479 3.479s1.558 3.479 3.479 3.479 3.479-1.558 3.479-3.479c0-1.92-1.558-3.479-3.479-3.479z"></path><path d="m432.47 406.075c-1.921 0-3.479 1.558-3.479 3.479s1.558 3.479 3.479 3.479 3.479-1.558 3.479-3.479c0-1.92-1.558-3.479-3.479-3.479z"></path><path d="m398.407 395.284c-1.921 0-3.479 1.558-3.479 3.478 0 1.921 1.557 3.479 3.479 3.479s3.479-1.558 3.479-3.479c0-1.92-1.558-3.478-3.479-3.478z"></path><path d="m410.043 406.075c-1.921 0-3.479 1.558-3.479 3.479s1.557 3.479 3.479 3.479c1.921 0 3.479-1.558 3.479-3.479 0-1.92-1.558-3.479-3.479-3.479z"></path><path d="m387.616 406.075c-1.921 0-3.478 1.558-3.478 3.479s1.557 3.479 3.478 3.479 3.479-1.558 3.479-3.479c0-1.92-1.558-3.479-3.479-3.479z"></path><path d="m353.553 395.284c-1.921 0-3.479 1.558-3.479 3.478 0 1.921 1.557 3.479 3.479 3.479s3.479-1.558 3.479-3.479c0-1.92-1.558-3.478-3.479-3.478z"></path><path d="m365.189 406.075c-1.921 0-3.478 1.558-3.478 3.479s1.557 3.479 3.478 3.479 3.479-1.558 3.479-3.479c0-1.92-1.558-3.479-3.479-3.479z"></path><path d="m342.762 406.075c-1.921 0-3.479 1.558-3.479 3.479s1.557 3.479 3.479 3.479c1.921 0 3.479-1.558 3.479-3.479 0-1.92-1.558-3.479-3.479-3.479z"></path><path d="m320.335 406.075c-1.921 0-3.479 1.558-3.479 3.479s1.557 3.479 3.479 3.479c1.921 0 3.479-1.558 3.479-3.479 0-1.92-1.558-3.479-3.479-3.479z"></path><path d="m286.272 395.284c-1.921 0-3.479 1.558-3.479 3.478 0 1.921 1.557 3.479 3.479 3.479s3.479-1.558 3.479-3.479c0-1.92-1.558-3.478-3.479-3.478z"></path><path d="m297.908 406.075c-1.921 0-3.479 1.558-3.479 3.479s1.557 3.479 3.479 3.479c1.921 0 3.479-1.558 3.479-3.479 0-1.92-1.558-3.479-3.479-3.479z"></path><path d="m275.481 406.075c-1.921 0-3.479 1.558-3.479 3.479s1.558 3.479 3.479 3.479 3.479-1.558 3.479-3.479c0-1.92-1.558-3.479-3.479-3.479z"></path><path d="m253.054 406.075c-1.921 0-3.479 1.558-3.479 3.479s1.558 3.479 3.479 3.479 3.479-1.558 3.479-3.479c0-1.92-1.558-3.479-3.479-3.479z"></path><path d="m218.991 395.284c-1.921 0-3.479 1.558-3.479 3.478 0 1.921 1.558 3.479 3.479 3.479s3.479-1.558 3.479-3.479c0-1.92-1.558-3.478-3.479-3.478z"></path><path d="m230.627 406.075c-1.921 0-3.479 1.558-3.479 3.479s1.558 3.479 3.479 3.479 3.479-1.558 3.479-3.479c-.001-1.92-1.558-3.479-3.479-3.479z"></path><path d="m196.564 395.284c-1.921 0-3.479 1.558-3.479 3.478 0 1.921 1.557 3.479 3.479 3.479 1.921 0 3.479-1.558 3.479-3.479 0-1.92-1.558-3.478-3.479-3.478z"></path><path d="m208.2 406.075c-1.921 0-3.479 1.558-3.479 3.479s1.557 3.479 3.479 3.479c1.921 0 3.479-1.558 3.479-3.479-.001-1.92-1.558-3.479-3.479-3.479z"></path><path d="m174.137 395.284c-1.921 0-3.479 1.558-3.479 3.478 0 1.921 1.557 3.479 3.479 3.479 1.921 0 3.479-1.558 3.479-3.479 0-1.92-1.558-3.478-3.479-3.478z"></path><path d="m185.773 406.075c-1.921 0-3.479 1.558-3.479 3.479s1.557 3.479 3.479 3.479c1.921 0 3.479-1.558 3.479-3.479-.001-1.92-1.558-3.479-3.479-3.479z"></path><path d="m103.377 398.763c0 1.921 1.558 3.479 3.479 3.479s3.479-1.558 3.479-3.479-1.558-3.478-3.479-3.478c-1.921-.001-3.479 1.557-3.479 3.478z"></path><path d="m84.429 395.284c-1.921 0-3.479 1.558-3.479 3.478 0 1.921 1.557 3.479 3.479 3.479 1.921 0 3.479-1.558 3.479-3.479 0-1.92-1.558-3.478-3.479-3.478z"></path><circle cx="96.064" cy="409.554" r="3.479"></circle><path d="m62.002 395.284c-1.921 0-3.479 1.558-3.479 3.478 0 1.921 1.558 3.479 3.479 3.479s3.479-1.558 3.479-3.479c-.001-1.92-1.558-3.478-3.479-3.478z"></path><path d="m73.637 406.075c-1.921 0-3.479 1.558-3.479 3.479s1.558 3.479 3.479 3.479 3.479-1.558 3.479-3.479c0-1.92-1.557-3.479-3.479-3.479z"></path><path d="m39.575 395.284c-1.921 0-3.479 1.558-3.479 3.478 0 1.921 1.558 3.479 3.479 3.479s3.479-1.558 3.479-3.479c0-1.92-1.558-3.478-3.479-3.478z"></path><path d="m51.21 406.075c-1.921 0-3.479 1.558-3.479 3.479s1.557 3.479 3.479 3.479c1.921 0 3.479-1.558 3.479-3.479 0-1.92-1.557-3.479-3.479-3.479z"></path><path d="m28.784 406.075c-1.921 0-3.479 1.558-3.479 3.479s1.557 3.479 3.479 3.479c1.921 0 3.479-1.558 3.479-3.479-.001-1.92-1.558-3.479-3.479-3.479z"></path><path d="m459.878 82.45h-407.755c-28.741 0-52.123 23.382-52.123 52.123v242.854c0 28.741 23.382 52.123 52.123 52.123h407.754c28.74 0 52.122-23.382 52.122-52.123v-242.854c.001-28.741-23.381-52.123-52.121-52.123zm-451.574 52.123c0-24.162 19.657-43.819 43.819-43.819h62.855v80.742c-7.751-8.143-18.284-14.375-33.424-14.375-26.903 0-48.791 21.887-48.791 48.79 0 .737.021 1.472.054 2.205h-24.513zm106.674 286.673h-4.649c0-.019.006-.037.006-.056 0-1.921-1.558-3.479-3.479-3.479s-3.479 1.557-3.479 3.479c0 .019.005.037.006.056h-15.481c0-.019.006-.037.006-.056 0-1.921-1.558-3.479-3.479-3.479s-3.479 1.557-3.479 3.479c0 .019.005.037.006.056h-15.481c0-.019.006-.037.006-.056 0-1.921-1.558-3.479-3.479-3.479s-3.479 1.557-3.479 3.479c0 .019.005.037.006.056h-6.405c-3.16 0-6.239-.344-9.21-.982-.408-1.469-1.74-2.552-3.338-2.552-.907 0-1.726.355-2.345.924-8.758-3.175-16.224-9.064-21.377-16.649.401.161.836.255 1.295.255 1.921 0 3.479-1.558 3.479-3.479s-1.558-3.478-3.479-3.478c-1.82 0-3.297 1.403-3.449 3.183-3.436-6.249-5.395-13.419-5.395-21.04v-121.814h104.535c.027-.047.055-.307.082-.679l.314.002c-.131.224-.264.452-.396.677-13.851 23.674-30.883 52.52-31.041 52.787-4.182 7.083-1.823 16.248 5.259 20.43 2.298 1.357 4.917 2.074 7.576 2.074 5.257 0 10.183-2.81 12.856-7.334l.235-.398c1.489-2.523 4.056-6.874 7.254-12.3v110.373zm20.821-162.247c-12.634 21.657-30.157 51.363-35.226 59.952l-.235.397c-1.185 2.006-3.371 3.252-5.705 3.252-1.174 0-2.333-.318-3.353-.92-3.14-1.854-4.186-5.918-2.334-9.054.171-.29 20.47-34.663 35.078-59.695.746-1.279.755-2.86.022-4.147s-2.096-2.086-3.577-2.098l-38.994-.289c-10.76 0-20.897-4.215-28.542-11.871-7.651-7.66-11.865-17.823-11.865-28.615 0-22.325 18.162-40.486 40.487-40.486 20.192 0 30.182 12.838 37.969 26.712 4.523 8.058 11.371 19.988 16.319 28.578.741 1.287 2.113 2.08 3.598 2.08s2.856-.793 3.598-2.08c4.948-8.59 11.796-20.52 16.319-28.578 7.787-13.874 17.777-26.712 37.969-26.712 22.325 0 40.487 18.162 40.487 40.485 0 22.325-18.162 40.487-40.518 40.487l-38.992.29c-1.481.011-2.844.811-3.577 2.098-.733 1.288-.724 2.868.022 4.147 14.341 24.573 34.907 59.405 35.076 59.69 1.854 3.141.809 7.204-2.332 9.058-1.019.602-2.179.92-3.353.92-2.369 0-4.502-1.216-5.705-3.251l-.062-.105c-3.575-6.055-22.082-37.417-35.4-60.245-.744-1.276-2.109-2.06-3.586-2.06-1.479 0-2.844.784-3.588 2.06zm367.897 118.428c0 2.822-.278 5.579-.79 8.253-.55-1.197-1.752-2.032-3.155-2.032-1.921 0-3.479 1.558-3.479 3.479s1.557 3.479 3.479 3.479c.812 0 1.549-.29 2.141-.755-4.521 15.261-17.139 27.071-32.861 30.426-.403-1.476-1.739-2.566-3.342-2.566-1.919 0-3.474 1.553-3.478 3.471-.773.041-1.55.064-2.333.064h-13.143c0-.019.006-.037.006-.056 0-1.921-1.557-3.479-3.478-3.479s-3.479 1.557-3.479 3.479c0 .019.005.037.006.056h-15.481c0-.019.006-.037.006-.056 0-1.921-1.557-3.479-3.479-3.479-1.921 0-3.479 1.557-3.479 3.479 0 .019.005.037.006.056h-15.483c0-.019.006-.037.006-.056 0-1.921-1.557-3.479-3.479-3.479s-3.479 1.557-3.479 3.479c0 .019.005.037.006.056h-15.481c0-.019.006-.037.006-.056 0-1.921-1.557-3.479-3.479-3.479s-3.479 1.557-3.479 3.479c0 .019.005.037.006.056h-15.481c0-.019.006-.037.006-.056 0-1.921-1.557-3.479-3.479-3.479s-3.479 1.557-3.479 3.479c0 .019.005.037.006.056h-15.481c0-.019.006-.037.006-.056 0-1.921-1.557-3.479-3.479-3.479-1.921 0-3.479 1.557-3.479 3.479 0 .019.005.037.006.056h-15.481c0-.019.006-.037.006-.056 0-1.921-1.557-3.479-3.479-3.479-1.921 0-3.479 1.557-3.479 3.479 0 .019.005.037.006.056h-15.481c0-.019.006-.037.006-.056 0-1.921-1.557-3.479-3.479-3.479s-3.479 1.557-3.479 3.479c0 .019.005.037.006.056h-15.481c0-.019.006-.037.006-.056 0-1.921-1.558-3.479-3.479-3.479s-3.479 1.557-3.479 3.479c0 .019.005.037.006.056h-15.481c0-.019.006-.037.006-.056 0-1.921-1.558-3.479-3.479-3.479s-3.479 1.557-3.479 3.479c0 .019.005.037.006.056h-15.481c0-.019.006-.037.006-.056 0-1.921-1.558-3.479-3.479-3.479s-3.479 1.557-3.479 3.479c0 .019.005.037.006.056h-15.481c0-.019.006-.037.006-.056 0-1.921-1.557-3.479-3.479-3.479-1.921 0-3.479 1.557-3.479 3.479 0 .019.005.037.006.056h-15.481c0-.019.006-.037.006-.056 0-1.921-1.557-3.479-3.479-3.479-1.921 0-3.479 1.557-3.479 3.479 0 .019.005.037.006.056h-8.189v-8.336c.28.073.568.124.87.124 1.921 0 3.479-1.558 3.479-3.479s-1.558-3.479-3.479-3.479c-.302 0-.591.051-.87.124v-97.563c4.225 7.172 7.457 12.648 8.745 14.83l.063.106c2.672 4.522 7.597 7.332 12.855 7.332 2.658 0 5.277-.717 7.576-2.074 7.082-4.182 9.442-13.347 5.257-20.434-.157-.266-17.504-29.645-31.435-53.458l.314-.002c.027.372.055.631.082.678h309.735c.493.27 1.054.43 1.657.43s1.164-.16 1.657-.43h19.113c.493.27 1.054.43 1.657.43.602 0 1.164-.16 1.657-.43h2.288zm0-169.311h-.504c.016-.134.037-.267.037-.405 0-1.922-1.557-3.479-3.479-3.479-1.921 0-3.479 1.557-3.479 3.479 0 .138.021.271.037.405h-15.544c.016-.134.037-.267.037-.405 0-1.922-1.558-3.479-3.479-3.479s-3.479 1.557-3.479 3.479c0 .138.021.271.038.405h-227.821c.033-.731.056-1.466.056-2.206 0-26.902-21.888-48.79-48.791-48.79-16.088 0-26.977 7.035-34.85 15.924v-82.29h297.402c5.195 0 10.179.914 14.807 2.581-.516.606-.839 1.382-.839 2.241 0 1.921 1.558 3.479 3.479 3.479 1.757 0 3.195-1.307 3.431-3 7.756 4.221 14.093 10.723 18.129 18.592-1.499.387-2.611 1.737-2.611 3.356 0 1.921 1.557 3.479 3.479 3.479.652 0 1.255-.19 1.776-.503 1.401 4.283 2.169 8.849 2.169 13.594v73.543z"></path><path d="m107.99 198.612c-8.376-14.923-15.047-19.959-26.435-19.959-15.031 0-27.26 12.229-27.26 27.259 0 15.031 12.229 27.26 27.229 27.26l39.181.29h.031c1.476 0 2.843-.784 3.587-2.061.75-1.286.754-2.873.011-4.164-4.963-8.616-11.826-20.576-16.344-28.625zm-45.252 9.504c-.084-.725-.139-1.459-.139-2.206 0-10.452 8.503-18.955 18.956-18.955 6.265 0 10.985 1.094 19.194 15.72.935 1.666 1.974 3.505 3.072 5.44h-41.083z"></path><path d="m158.145 233.461h.031l39.087-.29c15.067-.01 27.323-12.235 27.323-27.26 0-15.031-12.229-27.26-27.26-27.26-11.388 0-18.059 5.037-26.434 19.959-3.603 6.418-9.102 16.049-16.344 28.625-.742 1.29-.738 2.878.011 4.163.743 1.279 2.109 2.063 3.586 2.063zm19.987-30.785c8.209-14.626 12.929-15.72 19.193-15.72 10.452 0 18.956 8.503 18.956 18.956 0 .747-.055 1.48-.14 2.205h-41.081c1.136-2.003 2.17-3.834 3.072-5.441z"></path><path d="m267.265 362.526h-33.812c-6.779 0-12.295 5.515-12.295 12.295v9.067c0 6.779 5.515 12.295 12.295 12.295h5.65c-.71.637-1.165 1.551-1.165 2.58 0 1.921 1.558 3.479 3.479 3.479s3.479-1.558 3.479-3.479c0-1.028-.455-1.943-1.165-2.58h17.799c-.71.637-1.165 1.551-1.165 2.58 0 1.921 1.558 3.479 3.479 3.479s3.479-1.558 3.479-3.479c0-1.028-.455-1.943-1.164-2.58h1.106c6.779 0 12.295-5.516 12.295-12.295v-9.067c0-6.78-5.515-12.295-12.295-12.295zm3.991 21.362c0 2.201-1.79 3.991-3.991 3.991h-33.812c-2.201 0-3.991-1.79-3.991-3.991v-9.067c0-2.201 1.79-3.991 3.991-3.991h33.812c2.201 0 3.991 1.79 3.991 3.991z"></path><path d="m337.253 362.526h-33.813c-6.778 0-12.294 5.515-12.294 12.295v9.067c0 6.779 5.515 12.295 12.294 12.295h2.945c-.71.637-1.164 1.551-1.164 2.58 0 1.921 1.557 3.479 3.479 3.479 1.921 0 3.479-1.558 3.479-3.479 0-1.028-.455-1.943-1.164-2.58h17.799c-.71.637-1.164 1.551-1.164 2.58 0 1.921 1.557 3.479 3.479 3.479 1.921 0 3.479-1.558 3.479-3.479 0-1.028-.455-1.943-1.164-2.58h3.812c6.779 0 12.295-5.516 12.295-12.295v-9.067c-.004-6.78-5.519-12.295-12.298-12.295zm3.991 21.362c0 2.201-1.79 3.991-3.991 3.991h-33.813c-2.2 0-3.99-1.79-3.99-3.991v-9.067c0-2.201 1.79-3.991 3.99-3.991h33.813c2.201 0 3.991 1.79 3.991 3.991z"></path><path d="m400.558 385.613v-12.517c0-5.828-4.742-10.57-10.57-10.57h-18.285c-5.829 0-10.57 4.742-10.57 10.57v12.517c0 5.828 4.742 10.57 10.57 10.57h1.963c-.71.637-1.164 1.551-1.164 2.58 0 1.921 1.557 3.479 3.479 3.479s3.479-1.558 3.479-3.479c0-1.028-.455-1.943-1.164-2.58h11.694c5.826 0 10.568-4.742 10.568-10.57zm-8.304 0c0 1.25-1.017 2.266-2.266 2.266h-18.285c-1.25 0-2.267-1.017-2.267-2.266v-12.517c0-1.249 1.017-2.266 2.267-2.266h18.285c1.249 0 2.266 1.017 2.266 2.266z"></path><path d="m377.262 319.713c0-2.293-1.859-4.152-4.152-4.152h-145.572c-2.293 0-4.152 1.859-4.152 4.152s1.859 4.152 4.152 4.152h145.572c2.293 0 4.152-1.859 4.152-4.152z"></path><path d="m400.669 323.865h44.52c2.293 0 4.152-1.859 4.152-4.152s-1.859-4.152-4.152-4.152h-44.52c-2.293 0-4.152 1.859-4.152 4.152s1.86 4.152 4.152 4.152z"></path></g></svg>